<?xml version="1.0" encoding="UTF-8" standalone="no"?>
<svg
   class="svglite"
   width="170.08pt"
   height="179.11737pt"
   viewBox="0 0 170.08 179.11737"
   version="1.1"
   id="svg118"
   sodipodi:docname="Graf RR Nac.svg"
   inkscape:version="1.1.1 (3bf5ae0d25, 2021-09-20)"
   xmlns:inkscape="http://www.inkscape.org/namespaces/inkscape"
   xmlns:sodipodi="http://sodipodi.sourceforge.net/DTD/sodipodi-0.dtd"
   xmlns="http://www.w3.org/2000/svg"
   xmlns:svg="http://www.w3.org/2000/svg">
  <sodipodi:namedview
     id="namedview120"
     pagecolor="#505050"
     bordercolor="#ffffff"
     borderopacity="1"
     inkscape:pageshadow="0"
     inkscape:pageopacity="0"
     inkscape:pagecheckerboard="1"
     inkscape:document-units="pt"
     showgrid="false"
     fit-margin-top="0"
     fit-margin-left="0"
     fit-margin-right="0"
     fit-margin-bottom="0"
     inkscape:zoom="0.84886523"
     inkscape:cx="457.0808"
     inkscape:cy="346.34473"
     inkscape:window-width="1920"
     inkscape:window-height="974"
     inkscape:window-x="-11"
     inkscape:window-y="-11"
     inkscape:window-maximized="1"
     inkscape:current-layer="g116"
     showguides="false" />
  <defs
     id="defs4">
    <style
       type="text/css"
       id="style2"><![CDATA[
    .svglite line, .svglite polyline, .svglite polygon, .svglite path, .svglite rect, .svglite circle {
      fill: none;
      stroke: #000000;
      stroke-linecap: round;
      stroke-linejoin: round;
      stroke-miterlimit: 10.00;
    }
    .svglite text {
      white-space: pre;
    }
  ]]></style>
  </defs>
  <rect
     width="170.08"
     height="179.11737"
     style="fill:#ffffff;stroke:none"
     id="rect6"
     x="0"
     y="0" />
  <defs
     id="defs11">
    <clipPath
       id="cpMC4wMHwxNzAuMDh8MC4wMHwxNzAuMDg=">
      <rect
         x="0"
         y="0"
         width="170.08"
         height="170.08"
         id="rect8" />
    </clipPath>
  </defs>
  <g
     clip-path="url(#cpMC4wMHwxNzAuMDh8MC4wMHwxNzAuMDg=)"
     id="g15"
     transform="translate(0,4.6385455)" />
  <defs
     id="defs20">
    <clipPath
       id="cpMzQuNDd8MTY0LjYwfDIzLjE4fDEzOS4zMg==">
      <rect
         x="34.470001"
         y="23.18"
         width="130.13"
         height="116.14"
         id="rect17" />
    </clipPath>
  </defs>
  <g
     clip-path="url(#cpMzQuNDd8MTY0LjYwfDIzLjE4fDEzOS4zMg==)"
     id="g68"
     transform="translate(0,4.6385455)">
    <rect
       x="34.470001"
       y="23.18"
       width="130.13"
       height="116.14"
       style="fill:#ffffff;stroke:none;stroke-width:1.07"
       id="rect22" />
    <polyline
       points="34.47,114.18 164.60,114.18 "
       style="stroke:#ebebeb;stroke-width:0.53;stroke-linecap:butt"
       id="polyline24" />
    <polyline
       points="34.47,74.46 164.60,74.46 "
       style="stroke:#ebebeb;stroke-width:0.53;stroke-linecap:butt"
       id="polyline26" />
    <polyline
       points="34.47,34.73 164.60,34.73 "
       style="stroke:#ebebeb;stroke-width:0.53;stroke-linecap:butt"
       id="polyline28" />
    <polyline
       points="40.38,139.32 40.38,23.18 "
       style="stroke:#ebebeb;stroke-width:0.53;stroke-linecap:butt"
       id="polyline30" />
    <polyline
       points="58.58,139.32 58.58,23.18 "
       style="stroke:#ebebeb;stroke-width:0.53;stroke-linecap:butt"
       id="polyline32" />
    <polyline
       points="76.78,139.32 76.78,23.18 "
       style="stroke:#ebebeb;stroke-width:0.53;stroke-linecap:butt"
       id="polyline34" />
    <polyline
       points="94.98,139.32 94.98,23.18 "
       style="stroke:#ebebeb;stroke-width:0.53;stroke-linecap:butt"
       id="polyline36" />
    <polyline
       points="113.18,139.32 113.18,23.18 "
       style="stroke:#ebebeb;stroke-width:0.53;stroke-linecap:butt"
       id="polyline38" />
    <polyline
       points="131.38,139.32 131.38,23.18 "
       style="stroke:#ebebeb;stroke-width:0.53;stroke-linecap:butt"
       id="polyline40" />
    <polyline
       points="149.58,139.32 149.58,23.18 "
       style="stroke:#ebebeb;stroke-width:0.53;stroke-linecap:butt"
       id="polyline42" />
    <polyline
       points="34.47,134.04 164.60,134.04 "
       style="stroke:#ebebeb;stroke-width:1.07;stroke-linecap:butt"
       id="polyline44" />
    <polyline
       points="34.47,94.32 164.60,94.32 "
       style="stroke:#ebebeb;stroke-width:1.07;stroke-linecap:butt"
       id="polyline46" />
    <polyline
       points="34.47,54.59 164.60,54.59 "
       style="stroke:#ebebeb;stroke-width:1.07;stroke-linecap:butt"
       id="polyline48" />
    <polyline
       points="49.48,139.32 49.48,23.18 "
       style="stroke:#ebebeb;stroke-width:1.07;stroke-linecap:butt"
       id="polyline50" />
    <polyline
       points="67.68,139.32 67.68,23.18 "
       style="stroke:#ebebeb;stroke-width:1.07;stroke-linecap:butt"
       id="polyline52" />
    <polyline
       points="85.88,139.32 85.88,23.18 "
       style="stroke:#ebebeb;stroke-width:1.07;stroke-linecap:butt"
       id="polyline54" />
    <polyline
       points="104.08,139.32 104.08,23.18 "
       style="stroke:#ebebeb;stroke-width:1.07;stroke-linecap:butt"
       id="polyline56" />
    <polyline
       points="122.28,139.32 122.28,23.18 "
       style="stroke:#ebebeb;stroke-width:1.07;stroke-linecap:butt"
       id="polyline58" />
    <polyline
       points="140.48,139.32 140.48,23.18 "
       style="stroke:#ebebeb;stroke-width:1.07;stroke-linecap:butt"
       id="polyline60" />
    <polyline
       points="158.68,139.32 158.68,23.18 "
       style="stroke:#ebebeb;stroke-width:1.07;stroke-linecap:butt"
       id="polyline62" />
    <polyline
       points="49.48,134.04 50.09,120.71 50.70,110.66 51.30,102.74 51.91,96.24 52.52,90.70 53.12,85.84 53.73,81.47 54.34,77.47 54.94,73.78 55.55,70.33 56.16,67.08 56.76,64.03 57.37,61.13 57.98,58.39 58.58,55.79 59.19,53.31 59.80,50.95 60.40,48.71 61.01,46.57 61.62,44.53 62.22,42.58 62.83,40.72 63.44,38.94 64.04,37.25 64.65,35.62 65.26,34.06 65.86,32.57 66.47,31.14 67.08,29.77 67.68,28.46 68.29,34.48 68.90,38.76 69.50,41.92 70.11,44.35 70.72,46.30 71.32,47.91 71.93,49.29 72.54,50.51 73.14,51.59 73.75,52.57 74.36,53.46 74.96,54.28 75.57,55.04 76.18,55.73 76.78,56.38 77.39,56.98 78.00,57.54 78.60,58.05 79.21,58.52 79.82,58.96 80.42,59.37 81.03,59.74 81.64,60.09 82.24,60.40 82.85,60.69 83.46,60.96 84.06,61.20 84.67,61.42 85.28,61.62 85.88,61.80 86.49,61.96 87.10,62.10 87.70,62.23 88.31,62.34 88.92,62.44 89.52,62.53 90.13,62.60 90.74,62.66 91.34,62.72 91.95,62.76 92.56,62.79 93.16,62.81 93.77,62.82 94.38,62.83 94.98,62.83 95.59,62.82 96.20,62.80 96.80,62.78 97.41,62.75 98.02,62.72 98.62,62.68 99.23,62.64 99.84,62.60 100.44,62.55 101.05,62.49 101.66,62.43 102.26,62.37 102.87,62.31 103.48,62.24 104.08,62.17 104.69,68.14 105.30,72.62 105.90,76.13 106.51,78.99 107.12,81.42 107.72,83.55 108.33,85.44 108.94,87.17 109.54,88.75 110.15,90.23 110.76,91.61 111.36,92.91 111.97,94.13 112.58,95.28 113.18,96.37 113.79,97.40 114.40,98.37 115.00,99.29 115.61,100.17 116.22,101.00 116.82,101.78 117.43,102.53 118.04,103.24 118.64,103.91 119.25,104.56 119.86,105.16 120.46,105.74 121.07,106.29 121.68,106.82 122.28,107.32 122.89,107.80 123.50,108.25 124.10,108.68 124.71,109.10 125.32,109.49 125.92,109.87 126.53,110.23 127.14,110.58 127.74,110.91 128.35,111.22 128.96,111.53 129.56,111.82 130.17,112.10 130.78,112.37 131.38,112.63 131.99,112.87 132.60,113.11 133.20,113.34 133.81,113.57 134.42,113.78 135.02,113.99 135.63,114.19 136.24,114.38 136.84,114.57 137.45,114.75 138.06,114.93 138.66,115.10 139.27,115.26 139.88,115.42 140.48,115.58 141.09,115.73 141.70,115.88 142.30,116.02 142.91,116.16 143.52,116.30 144.12,116.43 144.73,116.56 145.34,116.69 145.94,116.82 146.55,116.94 147.16,117.06 147.76,117.18 148.37,117.29 148.98,117.40 149.58,117.51 150.19,117.62 150.80,117.73 151.40,117.84 152.01,117.94 152.62,118.04 153.22,118.14 153.83,118.24 154.44,118.34 155.04,118.43 155.65,118.53 156.26,118.62 156.86,118.71 157.47,118.80 158.08,118.89 158.68,118.98 "
       style="stroke:#3fbfff;stroke-width:1.49;stroke-linecap:butt"
       id="polyline64" />
    <rect
       x="34.470001"
       y="23.18"
       width="130.13"
       height="116.14"
       style="stroke:#333333;stroke-width:1.07"
       id="rect66" />
  </g>
  <g
     clip-path="url(#cpMC4wMHwxNzAuMDh8MC4wMHwxNzAuMDg=)"
     id="g116"
     transform="translate(0,4.6385455)">
    <text
       x="29.540001"
       y="136.89999"
       text-anchor="end"
       style="font-size:8px;font-family:Arial;fill:#4d4d4d"
       textLength="11.12"
       lengthAdjust="spacingAndGlyphs"
       id="text70">0.0</text>
    <text
       x="29.540001"
       y="97.18"
       text-anchor="end"
       style="font-size:8px;font-family:Arial;fill:#4d4d4d"
       textLength="11.12"
       lengthAdjust="spacingAndGlyphs"
       id="text72">0.2</text>
    <text
       x="29.540001"
       y="57.459999"
       text-anchor="end"
       style="font-size:8px;font-family:Arial;fill:#4d4d4d"
       textLength="11.12"
       lengthAdjust="spacingAndGlyphs"
       id="text74">0.4</text>
    <polyline
       points="31.73,134.04 34.47,134.04 "
       style="stroke:#333333;stroke-width:1.07;stroke-linecap:butt"
       id="polyline76" />
    <polyline
       points="31.73,94.32 34.47,94.32 "
       style="stroke:#333333;stroke-width:1.07;stroke-linecap:butt"
       id="polyline78" />
    <polyline
       points="31.73,54.59 34.47,54.59 "
       style="stroke:#333333;stroke-width:1.07;stroke-linecap:butt"
       id="polyline80" />
    <polyline
       points="49.48,142.06 49.48,139.32 "
       style="stroke:#333333;stroke-width:1.07;stroke-linecap:butt"
       id="polyline82" />
    <polyline
       points="67.68,142.06 67.68,139.32 "
       style="stroke:#333333;stroke-width:1.07;stroke-linecap:butt"
       id="polyline84" />
    <polyline
       points="85.88,142.06 85.88,139.32 "
       style="stroke:#333333;stroke-width:1.07;stroke-linecap:butt"
       id="polyline86" />
    <polyline
       points="104.08,142.06 104.08,139.32 "
       style="stroke:#333333;stroke-width:1.07;stroke-linecap:butt"
       id="polyline88" />
    <polyline
       points="122.28,142.06 122.28,139.32 "
       style="stroke:#333333;stroke-width:1.07;stroke-linecap:butt"
       id="polyline90" />
    <polyline
       points="140.48,142.06 140.48,139.32 "
       style="stroke:#333333;stroke-width:1.07;stroke-linecap:butt"
       id="polyline92" />
    <polyline
       points="158.68,142.06 158.68,139.32 "
       style="stroke:#333333;stroke-width:1.07;stroke-linecap:butt"
       id="polyline94" />
    <text
       x="49.48"
       y="149.98"
       text-anchor="middle"
       style="font-size:8px;font-family:Arial;fill:#4d4d4d"
       textLength="4.4499998"
       lengthAdjust="spacingAndGlyphs"
       id="text96">0</text>
    <text
       x="67.68"
       y="149.98"
       text-anchor="middle"
       style="font-size:8px;font-family:Arial;fill:#4d4d4d"
       textLength="11.12"
       lengthAdjust="spacingAndGlyphs"
       id="text98">0.5</text>
    <text
       x="85.879997"
       y="149.98"
       text-anchor="middle"
       style="font-size:8px;font-family:Arial;fill:#4d4d4d"
       textLength="4.4499998"
       lengthAdjust="spacingAndGlyphs"
       id="text100">1</text>
    <text
       x="104.08"
       y="149.98"
       text-anchor="middle"
       style="font-size:8px;font-family:Arial;fill:#4d4d4d"
       textLength="11.12"
       lengthAdjust="spacingAndGlyphs"
       id="text102">1.5</text>
    <text
       x="122.28"
       y="149.98"
       text-anchor="middle"
       style="font-size:8px;font-family:Arial;fill:#4d4d4d"
       textLength="4.4499998"
       lengthAdjust="spacingAndGlyphs"
       id="text104">2</text>
    <text
       x="140.48"
       y="149.98"
       text-anchor="middle"
       style="font-size:8px;font-family:Arial;fill:#4d4d4d"
       textLength="11.12"
       lengthAdjust="spacingAndGlyphs"
       id="text106">2.5</text>
    <text
       x="158.67999"
       y="149.98"
       text-anchor="middle"
       style="font-size:8px;font-family:Arial;fill:#4d4d4d"
       textLength="4.4499998"
       lengthAdjust="spacingAndGlyphs"
       id="text108">3</text>
    <text
       x="99.529999"
       y="162.28"
       text-anchor="middle"
       style="font-size:11px;font-family:Arial"
       textLength="51.57"
       lengthAdjust="spacingAndGlyphs"
       id="text110">Tiempo [h]</text>
    <text
       transform="rotate(-90,47.305,33.945)"
       text-anchor="middle"
       style="font-size:11px;font-family:Arial"
       textLength="98.459999"
       lengthAdjust="spacingAndGlyphs"
       id="text112">Concentracion [mM]</text>
    <text
       xml:space="preserve"
       style="font-size:9px;line-height:1.25;font-family:sans-serif;stroke-width:0.75"
       x="22.750961"
       y="8.4124041"
       id="text8774"><tspan
         sodipodi:role="line"
         id="tspan8772"
         style="stroke-width:0.75"
         x="22.750961"
         y="8.4124041">NAC RR con modelo </tspan><tspan
         sodipodi:role="line"
         style="stroke-width:0.75"
         x="22.750961"
         y="19.662403"
         id="tspan8776">PK anterior (NAC total)</tspan></text>
  </g>
</svg>
